<svg width="908" height="330" viewBox="0 0 908 330" fill="none" xmlns="http://www.w3.org/2000/svg">
<path d="M48.0672 242L55.6272 225.2H58.6992L66.2832 242H63.0192L56.5152 226.856H57.7632L51.2832 242H48.0672ZM51.5472 238.112L52.3872 235.664H61.4592L62.2992 238.112H51.5472ZM67.5798 242V228.464C67.5798 227.12 67.9718 226.048 68.7558 225.248C69.5558 224.432 70.6918 224.024 72.1638 224.024C72.6918 224.024 73.1878 224.08 73.6518 224.192C74.1318 224.304 74.5318 224.48 74.8518 224.72L74.0358 226.976C73.8118 226.8 73.5558 226.672 73.2678 226.592C72.9798 226.496 72.6838 226.448 72.3798 226.448C71.7558 226.448 71.2838 226.624 70.9638 226.976C70.6438 227.312 70.4838 227.824 70.4838 228.512V229.952L70.5798 231.296V242H67.5798ZM65.4678 231.68V229.28H74.0118V231.68H65.4678ZM75.5494 242V228.464C75.5494 227.12 75.9414 226.048 76.7254 225.248C77.5254 224.432 78.6614 224.024 80.1334 224.024C80.6614 224.024 81.1574 224.08 81.6214 224.192C82.1014 224.304 82.5014 224.48 82.8214 224.72L82.0054 226.976C81.7814 226.8 81.5254 226.672 81.2374 226.592C80.9494 226.496 80.6534 226.448 80.3494 226.448C79.7254 226.448 79.2534 226.624 78.9334 226.976C78.6134 227.312 78.4534 227.824 78.4534 228.512V229.952L78.5494 231.296V242H75.5494ZM73.4374 231.68V229.28H81.9814V231.68H73.4374ZM88.6133 242.168C87.3013 242.168 86.1333 241.888 85.1093 241.328C84.0853 240.752 83.2773 239.968 82.6853 238.976C82.0933 237.984 81.7973 236.856 81.7973 235.592C81.7973 234.312 82.0933 233.184 82.6853 232.208C83.2773 231.216 84.0853 230.44 85.1093 229.88C86.1333 229.32 87.3013 229.04 88.6133 229.04C89.9413 229.04 91.1173 229.32 92.1413 229.88C93.1813 230.44 93.9893 231.208 94.5653 232.184C95.1573 233.16 95.4533 234.296 95.4533 235.592C95.4533 236.856 95.1573 237.984 94.5653 238.976C93.9893 239.968 93.1813 240.752 92.1413 241.328C91.1173 241.888 89.9413 242.168 88.6133 242.168ZM88.6133 239.6C89.3493 239.6 90.0053 239.44 90.5813 239.12C91.1573 238.8 91.6053 238.336 91.9253 237.728C92.2613 237.12 92.4293 236.408 92.4293 235.592C92.4293 234.76 92.2613 234.048 91.9253 233.456C91.6053 232.848 91.1573 232.384 90.5813 232.064C90.0053 231.744 89.3573 231.584 88.6373 231.584C87.9013 231.584 87.2453 231.744 86.6693 232.064C86.1093 232.384 85.6613 232.848 85.3253 233.456C84.9893 234.048 84.8213 234.76 84.8213 235.592C84.8213 236.408 84.9893 237.12 85.3253 237.728C85.6613 238.336 86.1093 238.8 86.6693 239.12C87.2453 239.44 87.8933 239.6 88.6133 239.6ZM97.3621 242V229.184H100.218V232.712L99.8821 231.68C100.266 230.816 100.866 230.16 101.682 229.712C102.514 229.264 103.546 229.04 104.778 229.04V231.896C104.65 231.864 104.53 231.848 104.418 231.848C104.306 231.832 104.194 231.824 104.082 231.824C102.946 231.824 102.042 232.16 101.37 232.832C100.698 233.488 100.362 234.472 100.362 235.784V242H97.3621ZM111.67 242.168C110.438 242.168 109.326 241.896 108.334 241.352C107.358 240.792 106.59 240.024 106.03 239.048C105.47 238.072 105.19 236.92 105.19 235.592C105.19 234.264 105.47 233.112 106.03 232.136C106.59 231.16 107.358 230.4 108.334 229.856C109.326 229.312 110.438 229.04 111.67 229.04C112.742 229.04 113.702 229.28 114.55 229.76C115.398 230.224 116.07 230.936 116.566 231.896C117.062 232.856 117.31 234.088 117.31 235.592C117.31 237.08 117.07 238.312 116.59 239.288C116.11 240.248 115.446 240.968 114.598 241.448C113.75 241.928 112.774 242.168 111.67 242.168ZM112.03 239.6C112.75 239.6 113.39 239.44 113.95 239.12C114.526 238.8 114.982 238.336 115.318 237.728C115.67 237.12 115.846 236.408 115.846 235.592C115.846 234.76 115.67 234.048 115.318 233.456C114.982 232.848 114.526 232.384 113.95 232.064C113.39 231.744 112.75 231.584 112.03 231.584C111.31 231.584 110.662 231.744 110.086 232.064C109.526 232.384 109.07 232.848 108.718 233.456C108.382 234.048 108.214 234.76 108.214 235.592C108.214 236.408 108.382 237.12 108.718 237.728C109.07 238.336 109.526 238.8 110.086 239.12C110.662 239.44 111.31 239.6 112.03 239.6ZM115.918 242V238.976L116.038 235.568L115.798 232.16V224.192H118.774V242H115.918ZM129.658 242V239.408L129.49 238.856V234.32C129.49 233.44 129.226 232.76 128.698 232.28C128.17 231.784 127.37 231.536 126.298 231.536C125.578 231.536 124.866 231.648 124.162 231.872C123.474 232.096 122.89 232.408 122.41 232.808L121.234 230.624C121.922 230.096 122.738 229.704 123.682 229.448C124.642 229.176 125.634 229.04 126.658 229.04C128.514 229.04 129.946 229.488 130.954 230.384C131.978 231.264 132.49 232.632 132.49 234.488V242H129.658ZM125.626 242.168C124.666 242.168 123.826 242.008 123.106 241.688C122.386 241.352 121.826 240.896 121.426 240.32C121.042 239.728 120.85 239.064 120.85 238.328C120.85 237.608 121.018 236.96 121.354 236.384C121.706 235.808 122.274 235.352 123.058 235.016C123.842 234.68 124.882 234.512 126.178 234.512H129.898V236.504H126.394C125.37 236.504 124.682 236.672 124.33 237.008C123.978 237.328 123.802 237.728 123.802 238.208C123.802 238.752 124.018 239.184 124.45 239.504C124.882 239.824 125.482 239.984 126.25 239.984C126.986 239.984 127.642 239.816 128.218 239.48C128.81 239.144 129.234 238.648 129.49 237.992L129.994 239.792C129.706 240.544 129.186 241.128 128.434 241.544C127.698 241.96 126.762 242.168 125.626 242.168ZM142.484 242.168C141.396 242.168 140.428 241.928 139.58 241.448C138.732 240.968 138.06 240.248 137.564 239.288C137.084 238.312 136.844 237.08 136.844 235.592C136.844 234.088 137.092 232.856 137.588 231.896C138.1 230.936 138.78 230.224 139.628 229.76C140.492 229.28 141.444 229.04 142.484 229.04C143.748 229.04 144.86 229.312 145.82 229.856C146.796 230.4 147.564 231.16 148.124 232.136C148.7 233.112 148.988 234.264 148.988 235.592C148.988 236.92 148.7 238.072 148.124 239.048C147.564 240.024 146.796 240.792 145.82 241.352C144.86 241.896 143.748 242.168 142.484 242.168ZM135.38 242V224.192H138.38V232.16L138.14 235.568L138.236 238.976V242H135.38ZM142.148 239.6C142.868 239.6 143.508 239.44 144.068 239.12C144.644 238.8 145.1 238.336 145.436 237.728C145.772 237.12 145.94 236.408 145.94 235.592C145.94 234.76 145.772 234.048 145.436 233.456C145.1 232.848 144.644 232.384 144.068 232.064C143.508 231.744 142.868 231.584 142.148 231.584C141.428 231.584 140.78 231.744 140.204 232.064C139.628 232.384 139.172 232.848 138.836 233.456C138.5 234.048 138.332 234.76 138.332 235.592C138.332 236.408 138.5 237.12 138.836 237.728C139.172 238.336 139.628 238.8 140.204 239.12C140.78 239.44 141.428 239.6 142.148 239.6ZM150.874 242V224.192H153.874V242H150.874ZM162.875 242.168C161.451 242.168 160.203 241.888 159.131 241.328C158.075 240.752 157.251 239.968 156.659 238.976C156.083 237.984 155.795 236.856 155.795 235.592C155.795 234.312 156.075 233.184 156.635 232.208C157.211 231.216 157.995 230.44 158.987 229.88C159.995 229.32 161.139 229.04 162.419 229.04C163.667 229.04 164.779 229.312 165.755 229.856C166.731 230.4 167.499 231.168 168.059 232.16C168.619 233.152 168.899 234.32 168.899 235.664C168.899 235.792 168.891 235.936 168.875 236.096C168.875 236.256 168.867 236.408 168.851 236.552H158.171V234.56H167.267L166.091 235.184C166.107 234.448 165.955 233.8 165.635 233.24C165.315 232.68 164.875 232.24 164.315 231.92C163.771 231.6 163.139 231.44 162.419 231.44C161.683 231.44 161.035 231.6 160.475 231.92C159.931 232.24 159.499 232.688 159.179 233.264C158.875 233.824 158.723 234.488 158.723 235.256V235.736C158.723 236.504 158.899 237.184 159.251 237.776C159.603 238.368 160.099 238.824 160.739 239.144C161.379 239.464 162.115 239.624 162.947 239.624C163.667 239.624 164.315 239.512 164.891 239.288C165.467 239.064 165.979 238.712 166.427 238.232L168.035 240.08C167.459 240.752 166.731 241.272 165.851 241.64C164.987 241.992 163.995 242.168 162.875 242.168Z" fill="white"/>
<path d="M719.098 242.24C717.818 242.24 716.626 242.032 715.522 241.616C714.434 241.184 713.482 240.584 712.666 239.816C711.866 239.032 711.242 238.112 710.794 237.056C710.346 236 710.122 234.848 710.122 233.6C710.122 232.352 710.346 231.2 710.794 230.144C711.242 229.088 711.874 228.176 712.69 227.408C713.506 226.624 714.458 226.024 715.546 225.608C716.634 225.176 717.826 224.96 719.122 224.96C720.498 224.96 721.754 225.2 722.89 225.68C724.026 226.144 724.986 226.84 725.77 227.768L723.754 229.664C723.146 229.008 722.466 228.52 721.714 228.2C720.962 227.864 720.146 227.696 719.266 227.696C718.386 227.696 717.578 227.84 716.842 228.128C716.122 228.416 715.49 228.824 714.946 229.352C714.418 229.88 714.002 230.504 713.698 231.224C713.41 231.944 713.266 232.736 713.266 233.6C713.266 234.464 713.41 235.256 713.698 235.976C714.002 236.696 714.418 237.32 714.946 237.848C715.49 238.376 716.122 238.784 716.842 239.072C717.578 239.36 718.386 239.504 719.266 239.504C720.146 239.504 720.962 239.344 721.714 239.024C722.466 238.688 723.146 238.184 723.754 237.512L725.77 239.432C724.986 240.344 724.026 241.04 722.89 241.52C721.754 242 720.49 242.24 719.098 242.24ZM733.043 242.168C731.619 242.168 730.371 241.888 729.299 241.328C728.243 240.752 727.419 239.968 726.827 238.976C726.251 237.984 725.963 236.856 725.963 235.592C725.963 234.312 726.243 233.184 726.803 232.208C727.379 231.216 728.163 230.44 729.155 229.88C730.163 229.32 731.307 229.04 732.587 229.04C733.835 229.04 734.947 229.312 735.923 229.856C736.899 230.4 737.667 231.168 738.227 232.16C738.787 233.152 739.067 234.32 739.067 235.664C739.067 235.792 739.059 235.936 739.043 236.096C739.043 236.256 739.035 236.408 739.019 236.552H728.339V234.56H737.435L736.259 235.184C736.275 234.448 736.123 233.8 735.803 233.24C735.483 232.68 735.043 232.24 734.483 231.92C733.939 231.6 733.307 231.44 732.587 231.44C731.851 231.44 731.203 231.6 730.643 231.92C730.099 232.24 729.667 232.688 729.347 233.264C729.043 233.824 728.891 234.488 728.891 235.256V235.736C728.891 236.504 729.067 237.184 729.419 237.776C729.771 238.368 730.267 238.824 730.907 239.144C731.547 239.464 732.283 239.624 733.115 239.624C733.835 239.624 734.483 239.512 735.059 239.288C735.635 239.064 736.147 238.712 736.595 238.232L738.203 240.08C737.627 240.752 736.899 241.272 736.019 241.64C735.155 241.992 734.163 242.168 733.043 242.168ZM740.989 242V229.184H743.845V232.712L743.509 231.68C743.893 230.816 744.493 230.16 745.309 229.712C746.141 229.264 747.173 229.04 748.405 229.04V231.896C748.277 231.864 748.157 231.848 748.045 231.848C747.933 231.832 747.821 231.824 747.709 231.824C746.573 231.824 745.669 232.16 744.997 232.832C744.325 233.488 743.989 234.472 743.989 235.784V242H740.989ZM755.283 242.168C753.875 242.168 752.787 241.808 752.019 241.088C751.251 240.352 750.867 239.272 750.867 237.848V226.352H753.867V237.776C753.867 238.384 754.019 238.856 754.323 239.192C754.643 239.528 755.083 239.696 755.643 239.696C756.315 239.696 756.875 239.52 757.323 239.168L758.163 241.304C757.811 241.592 757.379 241.808 756.867 241.952C756.355 242.096 755.827 242.168 755.283 242.168ZM748.755 231.68V229.28H757.299V231.68H748.755ZM759.671 242V229.184H762.671V242H759.671ZM761.183 227.072C760.623 227.072 760.159 226.896 759.791 226.544C759.439 226.192 759.263 225.768 759.263 225.272C759.263 224.76 759.439 224.336 759.791 224C760.159 223.648 760.623 223.472 761.183 223.472C761.743 223.472 762.199 223.64 762.551 223.976C762.919 224.296 763.103 224.704 763.103 225.2C763.103 225.728 762.927 226.176 762.575 226.544C762.223 226.896 761.759 227.072 761.183 227.072ZM766.056 242V228.464C766.056 227.12 766.448 226.048 767.232 225.248C768.032 224.432 769.168 224.024 770.64 224.024C771.168 224.024 771.664 224.08 772.128 224.192C772.608 224.304 773.008 224.48 773.328 224.72L772.512 226.976C772.288 226.8 772.032 226.672 771.744 226.592C771.456 226.496 771.16 226.448 770.856 226.448C770.232 226.448 769.76 226.624 769.44 226.976C769.12 227.312 768.96 227.824 768.96 228.512V229.952L769.056 231.296V242H766.056ZM763.944 231.68V229.28H772.488V231.68H763.944ZM774.6 242V229.184H777.6V242H774.6ZM776.112 227.072C775.552 227.072 775.088 226.896 774.72 226.544C774.368 226.192 774.192 225.768 774.192 225.272C774.192 224.76 774.368 224.336 774.72 224C775.088 223.648 775.552 223.472 776.112 223.472C776.672 223.472 777.128 223.64 777.48 223.976C777.848 224.296 778.032 224.704 778.032 225.2C778.032 225.728 777.856 226.176 777.504 226.544C777.152 226.896 776.688 227.072 776.112 227.072ZM786.459 242.168C785.115 242.168 783.915 241.888 782.859 241.328C781.819 240.752 781.003 239.968 780.411 238.976C779.819 237.984 779.523 236.856 779.523 235.592C779.523 234.312 779.819 233.184 780.411 232.208C781.003 231.216 781.819 230.44 782.859 229.88C783.915 229.32 785.115 229.04 786.459 229.04C787.707 229.04 788.803 229.296 789.747 229.808C790.707 230.304 791.435 231.04 791.931 232.016L789.627 233.36C789.243 232.752 788.771 232.304 788.211 232.016C787.667 231.728 787.075 231.584 786.435 231.584C785.699 231.584 785.035 231.744 784.443 232.064C783.851 232.384 783.387 232.848 783.051 233.456C782.715 234.048 782.547 234.76 782.547 235.592C782.547 236.424 782.715 237.144 783.051 237.752C783.387 238.344 783.851 238.8 784.443 239.12C785.035 239.44 785.699 239.6 786.435 239.6C787.075 239.6 787.667 239.456 788.211 239.168C788.771 238.88 789.243 238.432 789.627 237.824L791.931 239.168C791.435 240.128 790.707 240.872 789.747 241.4C788.803 241.912 787.707 242.168 786.459 242.168ZM801.46 242V239.408L801.292 238.856V234.32C801.292 233.44 801.028 232.76 800.5 232.28C799.972 231.784 799.172 231.536 798.1 231.536C797.38 231.536 796.668 231.648 795.964 231.872C795.276 232.096 794.692 232.408 794.212 232.808L793.036 230.624C793.724 230.096 794.54 229.704 795.484 229.448C796.444 229.176 797.436 229.04 798.46 229.04C800.316 229.04 801.748 229.488 802.756 230.384C803.78 231.264 804.292 232.632 804.292 234.488V242H801.46ZM797.428 242.168C796.468 242.168 795.628 242.008 794.908 241.688C794.188 241.352 793.628 240.896 793.228 240.32C792.844 239.728 792.652 239.064 792.652 238.328C792.652 237.608 792.82 236.96 793.156 236.384C793.508 235.808 794.076 235.352 794.86 235.016C795.644 234.68 796.684 234.512 797.98 234.512H801.7V236.504H798.196C797.172 236.504 796.484 236.672 796.132 237.008C795.78 237.328 795.604 237.728 795.604 238.208C795.604 238.752 795.82 239.184 796.252 239.504C796.684 239.824 797.284 239.984 798.052 239.984C798.788 239.984 799.444 239.816 800.02 239.48C800.612 239.144 801.036 238.648 801.292 237.992L801.796 239.792C801.508 240.544 800.988 241.128 800.236 241.544C799.5 241.96 798.564 242.168 797.428 242.168ZM812.006 242.168C810.598 242.168 809.51 241.808 808.742 241.088C807.974 240.352 807.59 239.272 807.59 237.848V226.352H810.59V237.776C810.59 238.384 810.742 238.856 811.046 239.192C811.366 239.528 811.806 239.696 812.366 239.696C813.038 239.696 813.598 239.52 814.046 239.168L814.886 241.304C814.534 241.592 814.102 241.808 813.59 241.952C813.078 242.096 812.55 242.168 812.006 242.168ZM805.478 231.68V229.28H814.022V231.68H805.478ZM821.996 242.168C820.572 242.168 819.324 241.888 818.252 241.328C817.196 240.752 816.372 239.968 815.78 238.976C815.204 237.984 814.916 236.856 814.916 235.592C814.916 234.312 815.196 233.184 815.756 232.208C816.332 231.216 817.116 230.44 818.108 229.88C819.116 229.32 820.26 229.04 821.54 229.04C822.788 229.04 823.9 229.312 824.876 229.856C825.852 230.4 826.62 231.168 827.18 232.16C827.74 233.152 828.02 234.32 828.02 235.664C828.02 235.792 828.012 235.936 827.996 236.096C827.996 236.256 827.988 236.408 827.972 236.552H817.292V234.56H826.388L825.212 235.184C825.228 234.448 825.076 233.8 824.756 233.24C824.436 232.68 823.996 232.24 823.436 231.92C822.892 231.6 822.26 231.44 821.54 231.44C820.804 231.44 820.156 231.6 819.596 231.92C819.052 232.24 818.62 232.688 818.3 233.264C817.996 233.824 817.844 234.488 817.844 235.256V235.736C817.844 236.504 818.02 237.184 818.372 237.776C818.724 238.368 819.22 238.824 819.86 239.144C820.5 239.464 821.236 239.624 822.068 239.624C822.788 239.624 823.436 239.512 824.012 239.288C824.588 239.064 825.1 238.712 825.548 238.232L827.156 240.08C826.58 240.752 825.852 241.272 824.972 241.64C824.108 241.992 823.116 242.168 821.996 242.168Z" fill="white"/>
<path d="M379.506 242V225.2H382.074L389.418 237.464H388.074L395.298 225.2H397.866L397.89 242H394.938L394.914 229.832H395.538L389.394 240.08H388.002L381.762 229.832H382.482V242H379.506ZM406.604 242.168C405.516 242.168 404.556 241.968 403.724 241.568C402.892 241.152 402.244 240.528 401.78 239.696C401.316 238.848 401.084 237.784 401.084 236.504V229.184H404.084V236.096C404.084 237.248 404.34 238.112 404.852 238.688C405.38 239.248 406.124 239.528 407.084 239.528C407.788 239.528 408.396 239.384 408.908 239.096C409.436 238.808 409.844 238.376 410.132 237.8C410.436 237.224 410.588 236.512 410.588 235.664V229.184H413.588V242H410.732V238.544L411.236 239.6C410.804 240.432 410.172 241.072 409.34 241.52C408.508 241.952 407.596 242.168 406.604 242.168ZM416.556 242V224.192H419.556V242H416.556ZM427.99 242.168C426.582 242.168 425.494 241.808 424.726 241.088C423.958 240.352 423.574 239.272 423.574 237.848V226.352H426.574V237.776C426.574 238.384 426.726 238.856 427.03 239.192C427.35 239.528 427.79 239.696 428.35 239.696C429.022 239.696 429.582 239.52 430.03 239.168L430.87 241.304C430.518 241.592 430.086 241.808 429.574 241.952C429.062 242.096 428.534 242.168 427.99 242.168ZM421.462 231.68V229.28H430.006V231.68H421.462ZM432.378 242V229.184H435.378V242H432.378ZM433.89 227.072C433.33 227.072 432.866 226.896 432.498 226.544C432.146 226.192 431.97 225.768 431.97 225.272C431.97 224.76 432.146 224.336 432.498 224C432.866 223.648 433.33 223.472 433.89 223.472C434.45 223.472 434.906 223.64 435.258 223.976C435.626 224.296 435.81 224.704 435.81 225.2C435.81 225.728 435.634 226.176 435.282 226.544C434.93 226.896 434.466 227.072 433.89 227.072ZM444.235 242.168C442.891 242.168 441.691 241.888 440.635 241.328C439.595 240.752 438.779 239.968 438.187 238.976C437.595 237.984 437.299 236.856 437.299 235.592C437.299 234.312 437.595 233.184 438.187 232.208C438.779 231.216 439.595 230.44 440.635 229.88C441.691 229.32 442.891 229.04 444.235 229.04C445.483 229.04 446.579 229.296 447.523 229.808C448.483 230.304 449.211 231.04 449.707 232.016L447.403 233.36C447.019 232.752 446.547 232.304 445.987 232.016C445.443 231.728 444.851 231.584 444.211 231.584C443.475 231.584 442.811 231.744 442.219 232.064C441.627 232.384 441.163 232.848 440.827 233.456C440.491 234.048 440.323 234.76 440.323 235.592C440.323 236.424 440.491 237.144 440.827 237.752C441.163 238.344 441.627 238.8 442.219 239.12C442.811 239.44 443.475 239.6 444.211 239.6C444.851 239.6 445.443 239.456 445.987 239.168C446.547 238.88 447.019 238.432 447.403 237.824L449.707 239.168C449.211 240.128 448.483 240.872 447.523 241.4C446.579 241.912 445.483 242.168 444.235 242.168ZM458.495 229.04C459.519 229.04 460.431 229.24 461.231 229.64C462.047 230.04 462.687 230.656 463.151 231.488C463.615 232.304 463.847 233.36 463.847 234.656V242H460.847V235.04C460.847 233.904 460.575 233.056 460.031 232.496C459.503 231.936 458.759 231.656 457.799 231.656C457.095 231.656 456.471 231.8 455.927 232.088C455.383 232.376 454.959 232.808 454.655 233.384C454.367 233.944 454.223 234.656 454.223 235.52V242H451.223V224.192H454.223V232.64L453.575 231.584C454.023 230.768 454.671 230.144 455.519 229.712C456.383 229.264 457.375 229.04 458.495 229.04ZM474.589 242V239.408L474.421 238.856V234.32C474.421 233.44 474.157 232.76 473.629 232.28C473.101 231.784 472.301 231.536 471.229 231.536C470.509 231.536 469.797 231.648 469.093 231.872C468.405 232.096 467.821 232.408 467.341 232.808L466.165 230.624C466.853 230.096 467.669 229.704 468.613 229.448C469.573 229.176 470.565 229.04 471.589 229.04C473.445 229.04 474.877 229.488 475.885 230.384C476.909 231.264 477.421 232.632 477.421 234.488V242H474.589ZM470.557 242.168C469.597 242.168 468.757 242.008 468.037 241.688C467.317 241.352 466.757 240.896 466.357 240.32C465.973 239.728 465.781 239.064 465.781 238.328C465.781 237.608 465.949 236.96 466.285 236.384C466.637 235.808 467.205 235.352 467.989 235.016C468.773 234.68 469.813 234.512 471.109 234.512H474.829V236.504H471.325C470.301 236.504 469.613 236.672 469.261 237.008C468.909 237.328 468.733 237.728 468.733 238.208C468.733 238.752 468.949 239.184 469.381 239.504C469.813 239.824 470.413 239.984 471.181 239.984C471.917 239.984 472.573 239.816 473.149 239.48C473.741 239.144 474.165 238.648 474.421 237.992L474.925 239.792C474.637 240.544 474.117 241.128 473.365 241.544C472.629 241.96 471.693 242.168 470.557 242.168ZM480.311 242V229.184H483.311V242H480.311ZM481.823 227.072C481.263 227.072 480.799 226.896 480.431 226.544C480.079 226.192 479.903 225.768 479.903 225.272C479.903 224.76 480.079 224.336 480.431 224C480.799 223.648 481.263 223.472 481.823 223.472C482.383 223.472 482.839 223.64 483.191 223.976C483.559 224.296 483.743 224.704 483.743 225.2C483.743 225.728 483.567 226.176 483.215 226.544C482.863 226.896 482.399 227.072 481.823 227.072ZM493.561 229.04C494.585 229.04 495.497 229.24 496.297 229.64C497.113 230.04 497.753 230.656 498.217 231.488C498.681 232.304 498.913 233.36 498.913 234.656V242H495.913V235.04C495.913 233.904 495.641 233.056 495.097 232.496C494.569 231.936 493.825 231.656 492.865 231.656C492.161 231.656 491.537 231.8 490.993 232.088C490.449 232.376 490.025 232.808 489.721 233.384C489.433 233.944 489.289 234.656 489.289 235.52V242H486.289V229.184H489.145V232.64L488.641 231.584C489.089 230.768 489.737 230.144 490.585 229.712C491.449 229.264 492.441 229.04 493.561 229.04Z" fill="white"/>
<rect x="49" y="77" width="120" height="120" rx="60" fill="#3A3D45"/>
<rect x="379" y="77" width="120" height="120" rx="60" fill="#3A3D45"/>
<rect x="709" y="77" width="120" height="120" rx="60" fill="#3A3D45"/>
<path d="M97.3332 160.333H90.3332C89.0955 160.333 87.9085 159.842 87.0333 158.966C86.1582 158.091 85.6665 156.904 85.6665 155.667V139.333C85.6665 138.095 86.1582 136.909 87.0333 136.033C87.9085 135.158 89.0955 134.667 90.3332 134.667H97.3332M113.667 130V120.667C113.667 118.81 112.929 117.03 111.616 115.717C110.303 114.404 108.523 113.667 106.667 113.667L97.3332 134.667V160.333H123.653C124.779 160.346 125.871 159.951 126.728 159.223C127.586 158.494 128.151 157.479 128.32 156.367L131.54 135.367C131.641 134.698 131.596 134.015 131.408 133.365C131.219 132.715 130.891 132.115 130.448 131.604C130.004 131.094 129.454 130.686 128.837 130.409C128.22 130.132 127.55 129.992 126.873 130H113.667Z" stroke="#6BB891" stroke-width="4" stroke-linecap="round" stroke-linejoin="round"/>
<path d="M434.333 139.333C435.336 140.673 436.614 141.782 438.082 142.584C439.55 143.386 441.174 143.863 442.842 143.982C444.511 144.102 446.186 143.861 447.753 143.276C449.321 142.692 450.744 141.777 451.927 140.593L458.927 133.593C461.052 131.393 462.228 128.446 462.201 125.387C462.175 122.328 460.948 119.402 458.785 117.239C456.622 115.076 453.695 113.849 450.637 113.822C447.578 113.796 444.631 114.972 442.43 117.097L438.417 121.087" stroke="#6BB891" stroke-width="4" stroke-linecap="round" stroke-linejoin="round"/>
<path d="M443.667 134.667C442.665 133.327 441.386 132.219 439.918 131.417C438.45 130.615 436.826 130.138 435.158 130.018C433.489 129.899 431.814 130.139 430.247 130.724C428.679 131.309 427.256 132.224 426.073 133.407L419.073 140.407C416.948 142.607 415.772 145.554 415.799 148.613C415.825 151.672 417.052 154.598 419.215 156.761C421.379 158.925 424.305 160.151 427.364 160.178C430.423 160.205 433.37 159.029 435.57 156.904L439.56 152.914" stroke="#6BB891" stroke-width="4" stroke-linecap="round" stroke-linejoin="round"/>
<path d="M771.333 113.667H755C753.762 113.667 752.576 114.158 751.7 115.033C750.825 115.909 750.333 117.095 750.333 118.333V155.667C750.333 156.904 750.825 158.091 751.7 158.966C752.576 159.842 753.762 160.333 755 160.333H783C784.238 160.333 785.425 159.842 786.3 158.966C787.175 158.091 787.667 156.904 787.667 155.667V130L771.333 113.667Z" stroke="#6BB891" stroke-width="4" stroke-linecap="round" stroke-linejoin="round"/>
<path d="M771.333 113.667V130H787.667" stroke="#6BB891" stroke-width="4" stroke-linecap="round" stroke-linejoin="round"/>
</svg>
