<svg width="1440" height="995" viewBox="0 0 1440 995" fill="none" xmlns="http://www.w3.org/2000/svg">
<path d="M-17 1930L374.5 1019.5C590.288 1098.95 568.038 1077.07 746.485 901.414C866.838 782.948 961.333 756.623 1048.78 746.751C1062.88 688.458 1074.65 629.281 1096.26 560.59C1132.35 445.854 1092.85 384.844 1078.15 374.871C1077.7 374.597 1077.45 374.429 1077.45 374.429C1077.68 374.563 1077.91 374.711 1078.15 374.871C1081.29 376.799 1094.44 383.952 1102.84 374.429C1115.05 360.591 1090.15 334 1090.15 334C1112.56 343.245 1158.32 413.918 1156.44 506.058C1154.08 621.233 1166.31 684.694 1184.64 758.5C1224.51 763.389 1414.81 816.639 1448.5 830.429L1485 1930H-17Z" fill="url(#paint0_linear_272_4)"/>
<circle cx="683.462" cy="599" r="4" fill="url(#paint1_radial_272_4)"/>
<circle cx="1004.46" cy="683" r="8" fill="url(#paint2_radial_272_4)"/>
<circle cx="805.462" cy="474" r="8" fill="url(#paint3_radial_272_4)"/>
<circle cx="742.462" cy="802" r="5" fill="url(#paint4_radial_272_4)"/>
<circle cx="1085.46" cy="330" r="19" fill="url(#paint5_radial_272_4)"/>
<circle cx="1028.46" cy="270" r="16" fill="url(#paint6_radial_272_4)"/>
<circle cx="863.462" cy="248" r="16" fill="url(#paint7_radial_272_4)"/>
<circle cx="1131.46" cy="254" r="16" fill="url(#paint8_radial_272_4)"/>
<circle cx="906.462" cy="365" r="16" fill="url(#paint9_radial_272_4)"/>
<circle cx="1050.46" cy="516" r="16" fill="url(#paint10_radial_272_4)"/>
<circle cx="1072.46" cy="373" r="16" fill="url(#paint11_radial_272_4)"/>
<circle cx="1256.46" cy="161" r="5" fill="url(#paint12_radial_272_4)"/>
<line x1="1084.94" y1="330.134" x2="1072.94" y2="373.134" stroke="#C7D0F5"/>
<line x1="1084.1" y1="330.341" x2="1028.1" y2="270.341" stroke="#C7D0F5"/>
<line x1="1131.54" y1="254.494" x2="1028.54" y2="270.494" stroke="#C7D0F5"/>
<line x1="906.155" y1="364.605" x2="1028.15" y2="269.605" stroke="#C7D0F5"/>
<line x1="906.825" y1="364.656" x2="1050.82" y2="516.656" stroke="#C7D0F5"/>
<line x1="805.546" y1="473.507" x2="1050.55" y2="515.485" stroke="url(#paint13_linear_272_4)"/>
<line x1="804.978" y1="473.876" x2="862.978" y2="247.876" stroke="url(#paint14_linear_272_4)"/>
<line x1="1256.76" y1="161.401" x2="1131.76" y2="254.401" stroke="url(#paint15_linear_272_4)"/>
<line x1="1065.95" y1="-24.1155" x2="1131.95" y2="253.884" stroke="url(#paint16_linear_272_4)"/>
<line x1="1231.94" y1="-69.8525" x2="1131.94" y2="254.147" stroke="url(#paint17_linear_272_4)"/>
<line x1="742.122" y1="801.633" x2="1051.12" y2="515.633" stroke="url(#paint18_linear_272_4)"/>
<line x1="1003.98" y1="682.867" x2="1049.98" y2="515.867" stroke="url(#paint19_linear_272_4)"/>
<line x1="906.486" y1="364.501" x2="1072.49" y2="372.501" stroke="#C7D0F5"/>
<line x1="863.719" y1="247.571" x2="1072.72" y2="372.571" stroke="#C7D0F5"/>
<defs>
<linearGradient id="paint0_linear_272_4" x1="671.5" y1="334" x2="671.5" y2="1269.51" gradientUnits="userSpaceOnUse">
<stop offset="0.0208333" stop-color="#04FFC3" stop-opacity="0.2"/>
<stop offset="0.328125" stop-color="#6BB891"/>
<stop offset="0.697917" stop-color="#04FFC3" stop-opacity="0"/>
<stop offset="0.807292" stop-color="#04FF4C" stop-opacity="0"/>
</linearGradient>
<radialGradient id="paint1_radial_272_4" cx="0" cy="0" r="1" gradientUnits="userSpaceOnUse" gradientTransform="translate(683.462 599) rotate(90) scale(4)">
<stop stop-color="#E8ECFF"/>
<stop offset="0.125" stop-color="#A1B3FC" stop-opacity="0.875"/>
<stop offset="1" stop-color="#00209A" stop-opacity="0"/>
</radialGradient>
<radialGradient id="paint2_radial_272_4" cx="0" cy="0" r="1" gradientUnits="userSpaceOnUse" gradientTransform="translate(1004.46 683) rotate(90) scale(8)">
<stop stop-color="#E8ECFF"/>
<stop offset="0.125" stop-color="#A1B3FC" stop-opacity="0.875"/>
<stop offset="1" stop-color="#00209A" stop-opacity="0"/>
</radialGradient>
<radialGradient id="paint3_radial_272_4" cx="0" cy="0" r="1" gradientUnits="userSpaceOnUse" gradientTransform="translate(805.462 474) rotate(90) scale(8)">
<stop stop-color="#E8ECFF"/>
<stop offset="0.125" stop-color="#A1B3FC" stop-opacity="0.875"/>
<stop offset="1" stop-color="#00209A" stop-opacity="0"/>
</radialGradient>
<radialGradient id="paint4_radial_272_4" cx="0" cy="0" r="1" gradientUnits="userSpaceOnUse" gradientTransform="translate(742.462 802) rotate(90) scale(5)">
<stop stop-color="#E8ECFF"/>
<stop offset="0.125" stop-color="#A1B3FC" stop-opacity="0.875"/>
<stop offset="1" stop-color="#00209A" stop-opacity="0"/>
</radialGradient>
<radialGradient id="paint5_radial_272_4" cx="0" cy="0" r="1" gradientUnits="userSpaceOnUse" gradientTransform="translate(1085.46 330) rotate(90) scale(19)">
<stop stop-color="#E8ECFF"/>
<stop offset="0.125" stop-color="#A1B3FC" stop-opacity="0.875"/>
<stop offset="1" stop-color="#00209A" stop-opacity="0"/>
</radialGradient>
<radialGradient id="paint6_radial_272_4" cx="0" cy="0" r="1" gradientUnits="userSpaceOnUse" gradientTransform="translate(1028.46 270) rotate(90) scale(16)">
<stop stop-color="#E8ECFF"/>
<stop offset="0.125" stop-color="#A1B3FC" stop-opacity="0.875"/>
<stop offset="1" stop-color="#00209A" stop-opacity="0"/>
</radialGradient>
<radialGradient id="paint7_radial_272_4" cx="0" cy="0" r="1" gradientUnits="userSpaceOnUse" gradientTransform="translate(863.462 248) rotate(90) scale(16)">
<stop stop-color="#E8ECFF"/>
<stop offset="0.125" stop-color="#A1B3FC" stop-opacity="0.875"/>
<stop offset="1" stop-color="#00209A" stop-opacity="0"/>
</radialGradient>
<radialGradient id="paint8_radial_272_4" cx="0" cy="0" r="1" gradientUnits="userSpaceOnUse" gradientTransform="translate(1131.46 254) rotate(90) scale(16)">
<stop stop-color="#E8ECFF"/>
<stop offset="0.125" stop-color="#A1B3FC" stop-opacity="0.875"/>
<stop offset="1" stop-color="#00209A" stop-opacity="0"/>
</radialGradient>
<radialGradient id="paint9_radial_272_4" cx="0" cy="0" r="1" gradientUnits="userSpaceOnUse" gradientTransform="translate(906.462 365) rotate(90) scale(16)">
<stop stop-color="#E8ECFF"/>
<stop offset="0.125" stop-color="#A1B3FC" stop-opacity="0.875"/>
<stop offset="1" stop-color="#00209A" stop-opacity="0"/>
</radialGradient>
<radialGradient id="paint10_radial_272_4" cx="0" cy="0" r="1" gradientUnits="userSpaceOnUse" gradientTransform="translate(1050.46 516) rotate(90) scale(16)">
<stop stop-color="#E8ECFF"/>
<stop offset="0.125" stop-color="#A1B3FC" stop-opacity="0.875"/>
<stop offset="1" stop-color="#00209A" stop-opacity="0"/>
</radialGradient>
<radialGradient id="paint11_radial_272_4" cx="0" cy="0" r="1" gradientUnits="userSpaceOnUse" gradientTransform="translate(1072.46 373) rotate(90) scale(16)">
<stop stop-color="#E8ECFF"/>
<stop offset="0.125" stop-color="#A1B3FC" stop-opacity="0.875"/>
<stop offset="1" stop-color="#00209A" stop-opacity="0"/>
</radialGradient>
<radialGradient id="paint12_radial_272_4" cx="0" cy="0" r="1" gradientUnits="userSpaceOnUse" gradientTransform="translate(1256.46 161) rotate(90) scale(5)">
<stop stop-color="#E8ECFF"/>
<stop offset="0.125" stop-color="#A1B3FC" stop-opacity="0.875"/>
<stop offset="1" stop-color="#00209A" stop-opacity="0"/>
</radialGradient>
<linearGradient id="paint13_linear_272_4" x1="995.478" y1="507.57" x2="810.06" y2="475.8" gradientUnits="userSpaceOnUse">
<stop stop-color="#C7D0F5"/>
<stop offset="1" stop-color="#C7D0F5" stop-opacity="0"/>
</linearGradient>
<linearGradient id="paint14_linear_272_4" x1="851.452" y1="298.812" x2="807.557" y2="469.851" gradientUnits="userSpaceOnUse">
<stop stop-color="#C7D0F5"/>
<stop offset="1" stop-color="#C7D0F5" stop-opacity="0"/>
</linearGradient>
<linearGradient id="paint15_linear_272_4" x1="1158.83" y1="232.392" x2="1253.43" y2="162.009" gradientUnits="userSpaceOnUse">
<stop stop-color="#C7D0F5"/>
<stop offset="1" stop-color="#C7D0F5" stop-opacity="0"/>
</linearGradient>
<linearGradient id="paint16_linear_272_4" x1="1115.72" y1="192.032" x2="1065.77" y2="-18.3609" gradientUnits="userSpaceOnUse">
<stop stop-color="#C7D0F5"/>
<stop offset="1" stop-color="#C7D0F5" stop-opacity="0"/>
</linearGradient>
<linearGradient id="paint17_linear_272_4" x1="1152.88" y1="181.215" x2="1228.56" y2="-63.9909" gradientUnits="userSpaceOnUse">
<stop stop-color="#C7D0F5"/>
<stop offset="1" stop-color="#C7D0F5" stop-opacity="0"/>
</linearGradient>
<linearGradient id="paint18_linear_272_4" x1="983.006" y1="580.721" x2="749.152" y2="797.168" gradientUnits="userSpaceOnUse">
<stop stop-color="#C7D0F5"/>
<stop offset="1" stop-color="#C7D0F5" stop-opacity="0"/>
</linearGradient>
<linearGradient id="paint19_linear_272_4" x1="1041.13" y1="553.629" x2="1006.32" y2="680.016" gradientUnits="userSpaceOnUse">
<stop stop-color="#C7D0F5"/>
<stop offset="1" stop-color="#C7D0F5" stop-opacity="0"/>
</linearGradient>
</defs>
</svg>
